# xmcd CD database file
#
# Track frame offsets:
#	150
#	32360
#	63036
#	72239
#	100466
#	127025
#	148225
#	173787
#	198502
#	206760
#	233031
#	268884
#	297187
#	341466
#
# Disc length: 4765 seconds
#
# Revision: 0
# Processed by: cddbd v1.5.2PL0 Copyright (c) Steve Scherf et al.
# Submitted via: CDex 1.70beta2
#
DISCID=d9129b0e
DTITLE=Sueddeutsche Zeitung - Jazz - Better cool than square
DYEAR=2011
DGENRE=Jazz
TTITLE0=Herbie Mann: Memphis Underground
TTITLE1=Art Blakey: Alamode
TTITLE2=Dave Brubeck: Unsquare Dance
TTITLE3=Wes Montgomery: Four On Six
TTITLE4=The John Scofield Band: Whatcha See Is Whatcha Get
TTITLE5=James Brown: For Once In My Life
TTITLE6=Tânia Maria: Come With Me
TTITLE7=Gato Barbieri: Latino America
TTITLE8=Erroll Garner: Erroll's Theme
TTITLE9=Chet Baker: Solar
TTITLE10=Shelly Manne: Squatty Roo
TTITLE11=Horace Silver: Soulville
TTITLE12=Billy Cobham: Stratus
TTITLE13=Abdullah Ibrahim: The Mountain Of The Night
EXTD=YEAR: 2011
EXTT0=
EXTT1=
EXTT2=
EXTT3=
EXTT4=
EXTT5=
EXTT6=
EXTT7=
EXTT8=
EXTT9=
EXTT10=
EXTT11=
EXTT12=
EXTT13=
PLAYORDER=
